<?xml version="1.0" encoding="utf-8"?>
<!-- Generator: Adobe Illustrator 21.0.2, SVG Export Plug-In . SVG Version: 6.00 Build 0)  -->
<svg version="1.1" id="Layer_1" xmlns="http://www.w3.org/2000/svg" xmlns:xlink="http://www.w3.org/1999/xlink" x="0px" y="0px"
	 viewBox="0 0 841.9 595.3" style="enable-background:new 0 0 841.9 595.3;" xml:space="preserve">
<style type="text/css">
	.st0{fill:#00A79D;}
</style>
<g>
	<path d="M363.7,347.3c0,0.3-0.2,0.5-0.5,0.5s-0.5-0.2-0.5-0.5v-10.4c0-0.3,0.2-0.5,0.5-0.5s0.5,0.2,0.5,0.5V347.3z"/>
	<path d="M368.4,340.2v4.9c0,1.3,0.7,1.9,1.7,1.9c0.5,0,0.8-0.1,1.3-0.3c0.5-0.3,0.8,0.4,0.4,0.7c-0.5,0.3-1,0.4-1.7,0.4
		c-1.5,0-2.5-0.9-2.5-2.6v-5H366c-0.2,0-0.4-0.2-0.4-0.4c0-0.2,0.2-0.4,0.4-0.4h1.5v-1.7c0-0.2,0.2-0.4,0.4-0.4
		c0.3,0,0.4,0.2,0.4,0.4v1.7h2.9c0.2,0,0.4,0.2,0.4,0.4c0,0.3-0.2,0.4-0.4,0.4H368.4z"/>
	<path d="M373.5,336.9c0-0.2,0.2-0.4,0.4-0.4s0.4,0.2,0.4,0.4v3.4c0,0.2-0.2,0.4-0.4,0.4s-0.4-0.2-0.4-0.4V336.9z"/>
	<path d="M376.7,346.4c0.8,0.5,1.9,0.8,3.3,0.8c1.8,0,2.8-0.7,2.8-1.6c0-2.6-6.5-0.3-6.5-4c0-1.2,1-2.4,3.9-2.4
		c1.2,0,2.2,0.2,2.9,0.5c0.5,0.3,0.2,1-0.4,0.8c-0.8-0.3-1.6-0.5-2.6-0.5c-2.1,0-2.9,0.8-2.9,1.6c0,2.7,6.5,0.4,6.5,4
		c0,1.5-1.4,2.4-3.6,2.4c-1.8,0-3-0.4-3.9-0.9C375.7,346.7,376.2,346,376.7,346.4z"/>
	<path d="M393,340.2v7.1c0,0.2-0.2,0.4-0.4,0.4c-0.3,0-0.4-0.2-0.4-0.4v-7.1h-1.3c-0.2,0-0.4-0.2-0.4-0.4c0-0.3,0.2-0.4,0.4-0.4h1.3
		v-1c0-2,1.3-3.3,3.2-3.3c0.3,0,0.5,0.2,0.5,0.4c0,0.2-0.2,0.4-0.5,0.4c-1.5,0-2.3,1-2.3,2.4v1h2.2c0.2,0,0.4,0.2,0.4,0.4
		c0,0.2-0.2,0.4-0.4,0.4H393z"/>
	<path d="M405.1,343.6c0,2.7-1.7,4.4-4.5,4.4c-2.5,0-4.2-1.6-4.2-4.4c0-2.6,1.7-4.4,4.5-4.4C403.5,339.1,405.1,340.8,405.1,343.6z
		 M404.2,343.6c0-2.3-1.2-3.6-3.3-3.6c-2.3,0-3.6,1.5-3.6,3.6c0,2.3,1.3,3.6,3.3,3.6C402.9,347.2,404.2,345.7,404.2,343.6z"/>
	<path d="M408.5,341.9v5.5c0,0.2-0.2,0.4-0.4,0.4c-0.3,0-0.4-0.2-0.4-0.4v-7.6c0-0.2,0.2-0.4,0.4-0.4c0.2,0,0.4,0.2,0.4,0.4v1.2
		c0.4-0.6,1.3-1.7,3.1-1.7c0.3,0,0.5,0.2,0.5,0.4c0,0.3-0.2,0.4-0.5,0.4C409.9,340.1,408.9,341.3,408.5,341.9z"/>
	<path d="M421.8,347.8c-0.4-0.1-0.8-0.4-1-0.8l-3.2-7c-0.1-0.3,0-0.7,0.4-0.7c0.2,0,0.3,0.1,0.4,0.3l3.2,7.1
		c0.1,0.2,0.2,0.3,0.5,0.4l3.4-7.4c0.1-0.2,0.2-0.3,0.4-0.3c0.3,0,0.5,0.3,0.4,0.6l-4.9,10.6c-0.2,0.5-1,0.2-0.8-0.4L421.8,347.8z"
		/>
	<path d="M430,344c-0.2,0-0.4-0.2-0.4-0.4c0-0.2,0.2-0.4,0.4-0.4h5.3c-0.1-1.9-1.3-3.3-3.3-3.3c-2.3,0-3.6,1.6-3.6,3.6
		c0,2.2,1.4,3.6,3.6,3.6c1.5,0,2.4-0.6,3-1.4c0.4-0.4,1,0.1,0.6,0.5c-0.6,0.9-2,1.7-3.6,1.7c-2.7,0-4.5-1.6-4.5-4.4
		c0-2.4,1.6-4.5,4.4-4.5c2.7,0,4.2,1.9,4.2,4.2c0,0.4-0.2,0.6-0.6,0.6H430z"/>
	<path d="M438.2,346.4c0.8,0.5,1.9,0.8,3.3,0.8c1.8,0,2.8-0.7,2.8-1.6c0-2.6-6.5-0.3-6.5-4c0-1.2,1-2.4,3.9-2.4
		c1.2,0,2.2,0.2,2.9,0.5c0.5,0.3,0.2,1-0.4,0.8c-0.8-0.3-1.6-0.5-2.6-0.5c-2.1,0-2.9,0.8-2.9,1.6c0,2.7,6.5,0.4,6.5,4
		c0,1.5-1.4,2.4-3.6,2.4c-1.8,0-3-0.4-3.9-0.9C437.2,346.7,437.6,346,438.2,346.4z"/>
	<path d="M449.2,340.2v4.9c0,1.3,0.7,1.9,1.7,1.9c0.5,0,0.8-0.1,1.3-0.3c0.5-0.3,0.8,0.4,0.4,0.7c-0.5,0.3-1,0.4-1.7,0.4
		c-1.5,0-2.5-0.9-2.5-2.6v-5h-1.5c-0.2,0-0.4-0.2-0.4-0.4c0-0.2,0.2-0.4,0.4-0.4h1.5v-1.7c0-0.2,0.2-0.4,0.4-0.4
		c0.3,0,0.4,0.2,0.4,0.4v1.7h2.9c0.2,0,0.4,0.2,0.4,0.4c0,0.3-0.2,0.4-0.4,0.4H449.2z"/>
	<path d="M456.5,344c-0.2,0-0.4-0.2-0.4-0.4c0-0.2,0.2-0.4,0.4-0.4h5.3c-0.1-1.9-1.3-3.3-3.3-3.3c-2.3,0-3.6,1.6-3.6,3.6
		c0,2.2,1.4,3.6,3.6,3.6c1.5,0,2.4-0.6,3-1.4c0.4-0.4,1,0.1,0.6,0.5c-0.6,0.9-2,1.7-3.6,1.7c-2.7,0-4.5-1.6-4.5-4.4
		c0-2.4,1.6-4.5,4.4-4.5c2.7,0,4.2,1.9,4.2,4.2c0,0.4-0.2,0.6-0.6,0.6H456.5z"/>
	<path d="M466,341.9v5.5c0,0.2-0.2,0.4-0.4,0.4c-0.3,0-0.4-0.2-0.4-0.4v-7.6c0-0.2,0.2-0.4,0.4-0.4c0.2,0,0.4,0.2,0.4,0.4v1.2
		c0.4-0.6,1.3-1.7,3.1-1.7c0.3,0,0.5,0.2,0.5,0.4c0,0.3-0.2,0.4-0.5,0.4C467.4,340.1,466.4,341.3,466,341.9z"/>
	<path d="M476.2,346.9c0.5-0.1,0.7,0.7,0.1,0.8c-0.4,0.1-1,0.2-1.5,0.2c-2.7,0-4.4-1.6-4.4-4.3c0-2.7,1.9-4.5,4.7-4.5
		c1.3,0,2.2,0.4,2.7,0.7v-4.3c0-0.2,0.2-0.4,0.4-0.4c0.2,0,0.4,0.2,0.4,0.4v11.8c0,0.2-0.2,0.4-0.4,0.4c-0.3,0-0.4-0.2-0.4-0.4v-6.5
		c-0.5-0.4-1.4-0.9-2.6-0.9c-2.4,0-3.9,1.5-3.9,3.6c0,2.2,1.3,3.5,3.6,3.5C475.3,347.1,475.8,347,476.2,346.9z"/>
	<path d="M487,346.9c0.5-0.1,0.7,0.7,0.1,0.8c-0.4,0.1-1,0.2-1.5,0.2c-2.7,0-4.4-1.6-4.4-4.3c0-2.7,1.9-4.5,4.7-4.5
		c1.3,0,2.2,0.5,2.7,0.8v-0.2c0-0.2,0.2-0.4,0.4-0.4c0.2,0,0.4,0.2,0.4,0.4v7.6c0,0.2-0.2,0.4-0.4,0.4c-0.3,0-0.4-0.2-0.4-0.4v-6.4
		c-0.5-0.4-1.4-1-2.6-1c-2.4,0-3.9,1.5-3.9,3.6c0,2.2,1.3,3.5,3.6,3.5C486.1,347.1,486.5,347,487,346.9z"/>
	<path d="M495.5,347.8c-0.4-0.1-0.8-0.4-1-0.8l-3.2-7c-0.1-0.3,0-0.7,0.4-0.7c0.2,0,0.3,0.1,0.4,0.3l3.2,7.1
		c0.1,0.2,0.2,0.3,0.5,0.4l3.4-7.4c0.1-0.2,0.2-0.3,0.4-0.3c0.3,0,0.5,0.3,0.4,0.6l-4.9,10.6c-0.2,0.5-1,0.2-0.8-0.4L495.5,347.8z"
		/>
</g>
<path d="M250.1,253.8c1.5,0,2.7,1.2,2.7,2.7c0,1.6-1.2,2.8-2.7,2.8s-2.7-1.2-2.7-2.8C247.4,255,248.5,253.8,250.1,253.8z
	 M248.5,270.3c0-0.8,0.7-1.5,1.5-1.5s1.5,0.7,1.5,1.5v40.9c0,0.8-0.7,1.5-1.5,1.5s-1.5-0.7-1.5-1.5V270.3z"/>
<path d="M292.9,309.5c1.7-0.3,2.4,2.1,0.6,2.7c-2.6,0.9-5.6,1.5-8.8,1.5c-14.1,0-23-8.6-23-22.6c0-13.9,10-23.3,24.6-23.3
	c6.9,0,12.1,2.3,14.9,4.5v-24.7c0-0.8,0.7-1.5,1.5-1.5c0.9,0,1.5,0.7,1.5,1.5v63.8c0,0.8-0.6,1.5-1.5,1.5c-0.8,0-1.5-0.8-1.5-1.5
	v-35.5c-3-2.7-8.2-5.1-14.6-5.1c-13.2,0-21.9,8.2-21.9,20.3c0,12.4,7.6,19.9,20.2,19.9C287.7,310.8,290.4,310.3,292.9,309.5z"/>
<path d="M325.5,292.3c-0.8,0-1.3-0.6-1.3-1.3c0-0.7,0.6-1.3,1.3-1.3H356c-0.3-11.2-7.2-19-18.6-19c-13,0-20,9.2-20,20.2
	c0,12.2,7.7,20.1,20.2,20.1c8.2,0,14.1-3.9,17.3-8.8c1.4-1.5,3.5,0.2,2.1,1.8c-3.5,5.5-10.5,9.8-19.5,9.8
	c-14.1,0-23.1-8.8-23.1-22.9c0-12.4,8-23.1,23-23.1c14.1,0,21.5,10.2,21.5,22.1c0,1.5-0.8,2.4-2.3,2.4H325.5z"/>
<path d="M368.1,270.3c0-0.8,0.7-1.5,1.5-1.5c0.8,0,1.5,0.7,1.5,1.5v6.3c2.1-2.4,8.4-8.8,18.4-8.8c11,0,19.1,7.7,19.1,18.6v24.7
	c0,0.8-0.6,1.5-1.4,1.5c-0.9,0-1.5-0.7-1.5-1.5v-23.8c0-10.2-6.9-16.6-16.6-16.6s-15.8,6.7-18,9.6v30.8c0,0.8-0.7,1.5-1.5,1.5
	c-0.8,0-1.5-0.7-1.5-1.5V270.3z"/>
<path d="M427.5,271.9v27.9c0,6.9,4.2,10.2,9.7,10.2c2.9,0,4.8-0.3,7.4-1.6c1.9-0.8,3,1.6,1.2,2.6c-2.7,1.3-5.4,1.9-8.8,1.9
	c-7.2,0-12.5-4.5-12.5-12.5v-28.5h-9c-0.8,0-1.5-0.6-1.5-1.4c0-0.8,0.7-1.4,1.5-1.4h9v-9.8c0-0.8,0.7-1.5,1.5-1.5
	c0.8,0,1.5,0.7,1.5,1.5v9.8h16.6c0.8,0,1.5,0.6,1.5,1.4c0,0.8-0.7,1.4-1.5,1.4H427.5z"/>
<path d="M455.9,253.8c1.5,0,2.7,1.2,2.7,2.7c0,1.6-1.2,2.8-2.7,2.8s-2.7-1.2-2.7-2.8C453.2,255,454.4,253.8,455.9,253.8z
	 M454.4,270.3c0-0.8,0.7-1.5,1.5-1.5s1.5,0.7,1.5,1.5v40.9c0,0.8-0.7,1.5-1.5,1.5s-1.5-0.7-1.5-1.5V270.3z"/>
<path d="M476.7,271.9v39.3c0,0.8-0.7,1.5-1.5,1.5c-0.8,0-1.5-0.7-1.5-1.5v-39.3H466c-0.8,0-1.5-0.6-1.5-1.4c0-0.8,0.7-1.4,1.5-1.4
	h7.7v-5.5c0-10.8,6.6-17.6,16.7-17.6c1,0,1.7,0.7,1.7,1.5c0,0.8-0.7,1.4-1.7,1.4c-8.6,0-13.7,6-13.7,14.6v5.5h12.9
	c0.8,0,1.5,0.6,1.5,1.4c0,0.8-0.7,1.4-1.5,1.4H476.7z"/>
<path d="M497.6,253.8c1.5,0,2.7,1.2,2.7,2.7c0,1.6-1.2,2.8-2.7,2.8c-1.5,0-2.7-1.2-2.7-2.8C494.9,255,496.1,253.8,497.6,253.8z
	 M496.1,270.3c0-0.8,0.7-1.5,1.5-1.5c0.8,0,1.5,0.7,1.5,1.5v40.9c0,0.8-0.7,1.5-1.5,1.5c-0.8,0-1.5-0.7-1.5-1.5V270.3z"/>
<path class="st0" d="M523.3,293.3c-1.7,0-2.9-1.3-2.9-2.9c0-1.6,1.3-2.9,2.9-2.9h24c-0.4-8.4-6.2-14.5-15.3-14.5
	c-10.5,0-17,7.5-17,17.2c0,10.7,7,16.9,17.6,16.9c7.1,0,11.1-2.5,13.8-5.6c3.7-3.3,8,1,4.8,4.5c-3.3,4.1-10.3,7.7-18.9,7.7
	c-14.1,0-24.2-8.3-24.2-23.3c0-12.6,8.7-23.9,23.8-23.9c14.7,0,22.4,10.3,22.4,22.3c0,2.7-1.7,4.5-4.2,4.5H523.3z M586.8,306
	c4-0.3,5.2,5.6,0.8,6.6c-2,0.6-4.1,0.9-6.6,0.9c-13.8,0-23.6-8.9-23.6-22.9c0-14.3,10.4-24.1,24.8-24.1c6.4,0,10.7,1.5,13,2.8v-19.8
	c0-1.9,1.7-3.5,3.6-3.5c2,0,3.6,1.6,3.6,3.5v59.8c0,1.9-1.6,3.6-3.6,3.6c-1.9,0-3.6-1.7-3.6-3.6v-32.2c-2.3-1.7-6.3-3.8-12.3-3.8
	c-11.4,0-18.5,6.8-18.5,16.7c0,10.4,6.5,16.7,17.3,16.7C583.5,306.7,585.1,306.4,586.8,306z"/>
<path class="st0" d="M600.4,346.1h-90.3c-1.2,0-2.1-1-2.1-2.1l0,0c0-1.2,1-2.1,2.1-2.1h90.3c1.2,0,2.1,1,2.1,2.1l0,0
	C602.6,345.2,601.6,346.1,600.4,346.1z"/>
</svg>
